<?xml version="1.0" encoding="utf-8"?>
<!-- Generator: Adobe Illustrator 26.0.2, SVG Export Plug-In . SVG Version: 6.00 Build 0)  -->
<svg version="1.1" id="레이어_1" xmlns="http://www.w3.org/2000/svg" xmlns:xlink="http://www.w3.org/1999/xlink" x="0px"
	 y="0px" viewBox="0 0 28 25" style="enable-background:new 0 0 28 25;" width="28px" height="25px" xml:space="preserve">
<style type="text/css">
	.st0{display:none;}
	.st1{fill:none;stroke:#FFFFFF;stroke-width:3;stroke-miterlimit:10;}
	.st2{fill:none;stroke:#FFFFFF;stroke-width:3;}
	.st3{fill:#FFFFFF;}
	.st4{fill:none;stroke:#B5B5B5;stroke-width:1.5;stroke-miterlimit:10;}
	.st5{fill:#B5B5B5;}
	.st6{display:inline;fill:#B5B5B5;}
</style>
<rect x="3" y="5" class="st0" width="20" height="15"/>
<g>
	<path class="st1" d="M-778.1,54.4c0,4.4-3.5,7.9-7.9,7.9h-84.2c-4.4,0-7.9-3.5-7.9-7.9v-84.2c0-4.4,3.5-7.9,7.9-7.9h84.2
		c4.4,0,7.9,3.5,7.9,7.9V54.4z"/>
	<path class="st2" d="M-798.5-29.1h-56.8c-7.2,0-13.1,5.9-13.1,13.2v31.2c0,7.3,5.9,13.1,13.1,13.1h19.6l6.7,10.9
		c0,0,0.1,0.1,0.2,0.3c0.4,0.7,1.1,1.1,1.9,1.1c0.8,0,1.5-0.5,1.9-1.1c0.2-0.2,0.2-0.3,0.2-0.3l6.7-10.9h19.6
		c7.2,0,13.1-5.9,13.1-13.1v-31.2C-785.4-23.2-791.3-29.1-798.5-29.1"/>
	<path class="st3" d="M-850-6.2c0,0-2.3,0-4.3,2v-8.1h-5.1V8.9h5.1V7.2c0,0,1.2,2.2,4.3,2.2c0,0,7.2-0.3,7.2-7.9
		C-842.8,1.5-843.1-6.2-850-6.2 M-851.1,5c-1.8,0-3.3-1.5-3.3-3.3c0-1.8,1.5-3.3,3.3-3.3c1.8,0,3.3,1.5,3.3,3.3
		C-847.8,3.5-849.3,5-851.1,5"/>
	<path class="st3" d="M-841.2-12.7v4.9c0,0,2.3-0.1,2.3,4.2V8.9h4.9V-4.8C-834-4.8-833.8-12.7-841.2-12.7"/>
	<path class="st3" d="M-822-6.1c0,0-8.4,0-8.4,7.8c0,0-0.3,7.7,8.4,7.7c0,0,8.6,0,8.6-7.7C-813.4,1.7-813.1-6.1-822-6.1 M-822,5
		c-1.8,0-3.3-1.5-3.3-3.3c0-1.8,1.5-3.3,3.3-3.3c1.8,0,3.3,1.5,3.3,3.3C-818.7,3.5-820.2,5-822,5"/>
	<path class="st3" d="M-799.4-5.6v1.4c0,0-1.5-1.9-4.3-1.9c0,0-7.2-0.3-7.2,7.8c0,0-0.1,7.5,7,7.5c0,0,2.9,0.1,4.5-1.9v1.2
		c0,0,0.4,3.7-3.2,3.7h-1.2v4.5h2c0,0,7.4,0.1,7.4-7.9V-5.6H-799.4z M-802.4,5c-1.8,0-3.3-1.5-3.3-3.3c0-1.8,1.5-3.3,3.3-3.3
		c1.8,0,3.3,1.5,3.3,3.3C-799.2,3.5-800.6,5-802.4,5"/>
</g>
<g>
	<path class="st1" d="M-770.8,53.1c0,4.4-3.5,7.9-7.9,7.9h-84.2c-4.4,0-7.9-3.5-7.9-7.9v-84.2c0-4.4,3.5-7.9,7.9-7.9h84.2
		c4.4,0,7.9,3.5,7.9,7.9V53.1z"/>
	<path class="st2" d="M-791.2-30.4H-848c-7.2,0-13.1,5.9-13.1,13.2V14c0,7.3,5.9,13.1,13.1,13.1h19.6l6.7,10.9c0,0,0.1,0.1,0.2,0.3
		c0.4,0.7,1.1,1.1,1.9,1.1c0.8,0,1.5-0.5,1.9-1.1c0.2-0.2,0.2-0.3,0.2-0.3l6.7-10.9h19.6c7.2,0,13.1-5.9,13.1-13.1v-31.2
		C-778.1-24.5-784-30.4-791.2-30.4"/>
	<path class="st3" d="M-842.7-7.5c0,0-2.3,0-4.3,2v-8.1h-5.1V7.6h5.1V5.9c0,0,1.2,2.2,4.3,2.2c0,0,7.2-0.3,7.2-7.9
		C-835.5,0.2-835.8-7.5-842.7-7.5 M-843.8,3.6c-1.8,0-3.3-1.5-3.3-3.3c0-1.8,1.5-3.3,3.3-3.3c1.8,0,3.3,1.5,3.3,3.3
		C-840.5,2.2-842,3.6-843.8,3.6"/>
	<path class="st3" d="M-833.9-14.1v4.9c0,0,2.3-0.1,2.3,4.2V7.6h4.9V-6.1C-826.7-6.1-826.4-14.1-833.9-14.1"/>
	<path class="st3" d="M-814.7-7.5c0,0-8.4,0-8.4,7.8c0,0-0.3,7.7,8.4,7.7c0,0,8.6,0,8.6-7.7C-806.1,0.4-805.8-7.5-814.7-7.5
		 M-814.7,3.6c-1.8,0-3.3-1.5-3.3-3.3c0-1.8,1.5-3.3,3.3-3.3c1.8,0,3.3,1.5,3.3,3.3C-811.4,2.2-812.9,3.6-814.7,3.6"/>
	<path class="st3" d="M-792.1-7v1.4c0,0-1.5-1.9-4.3-1.9c0,0-7.2-0.3-7.2,7.8c0,0-0.1,7.5,7,7.5c0,0,2.9,0.1,4.5-1.9v1.2
		c0,0,0.4,3.7-3.2,3.7h-1.2v4.5h2c0,0,7.4,0.1,7.4-7.9V-7H-792.1z M-795.1,3.6c-1.8,0-3.3-1.5-3.3-3.3c0-1.8,1.5-3.3,3.3-3.3
		c1.8,0,3.3,1.5,3.3,3.3C-791.9,2.2-793.3,3.6-795.1,3.6"/>
</g>
<g>
	<path class="st4" d="M21.2,2.5H4.8C2.7,2.5,1,4.2,1,6.3v9.1c0,2.1,1.7,3.8,3.8,3.8h5.7l1.9,3.2c0,0,0,0,0.1,0.1
		c0.1,0.2,0.3,0.3,0.6,0.3c0.2,0,0.4-0.1,0.6-0.3c0-0.1,0.1-0.1,0.1-0.1l1.9-3.2h5.7c2.1,0,3.8-1.7,3.8-3.8V6.3
		C25,4.2,23.3,2.5,21.2,2.5"/>
	<path class="st5" d="M6.3,9.1c0,0-0.7,0-1.3,0.6V7.4H3.6v6.1h1.5v-0.5c0,0,0.4,0.6,1.2,0.6c0,0,2.1-0.1,2.1-2.3
		C8.4,11.4,8.3,9.1,6.3,9.1 M6,12.4C5.5,12.4,5,12,5,11.4c0-0.5,0.4-0.9,0.9-0.9c0.5,0,0.9,0.4,0.9,0.9C6.9,12,6.5,12.4,6,12.4"/>
	<path class="st5" d="M8.9,7.3v1.4c0,0,0.7,0,0.7,1.2v3.6H11v-4C11,9.6,11,7.3,8.9,7.3"/>
	<path class="st5" d="M14.4,9.2c0,0-2.4,0-2.4,2.3c0,0-0.1,2.2,2.4,2.2c0,0,2.5,0,2.5-2.2C16.9,11.4,17,9.2,14.4,9.2 M14.4,12.4
		c-0.5,0-0.9-0.4-0.9-0.9c0-0.5,0.4-0.9,0.9-0.9c0.5,0,0.9,0.4,0.9,0.9C15.4,12,15,12.4,14.4,12.4"/>
	<path class="st5" d="M21,9.3v0.4c0,0-0.4-0.6-1.2-0.6c0,0-2.1-0.1-2.1,2.3c0,0,0,2.2,2,2.2c0,0,0.8,0,1.3-0.6v0.3
		c0,0,0.1,1.1-0.9,1.1h-0.4v1.3h0.6c0,0,2.2,0,2.2-2.3V9.3H21z M20.1,12.4c-0.5,0-0.9-0.4-0.9-0.9c0-0.5,0.4-0.9,0.9-0.9
		c0.5,0,0.9,0.4,0.9,0.9C21.1,12,20.6,12.4,20.1,12.4"/>
</g>
<g class="st0">
	<path class="st6" d="M17.5,1.8H8.5C5,1.8,2.2,4.5,2.2,8V17c0,3.4,2.8,6.2,6.2,6.2h9.1c3.4,0,6.2-2.8,6.2-6.2V8
		C23.8,4.5,21,1.8,17.5,1.8 M21.8,17.2c0,2.3-1.8,4.1-4.1,4.1H8.3c-2.3,0-4.1-1.8-4.1-4.1V7.9c0-2.3,1.8-4.1,4.1-4.1h9.3
		c2.3,0,4.1,1.8,4.1,4.1V17.2z"/>
	<path class="st6" d="M12.8,6.7c-3,0-5.5,2.4-5.5,5.5c0,3,2.4,5.5,5.5,5.5c3,0,5.5-2.4,5.5-5.5C18.2,9.1,15.8,6.7,12.8,6.7
		 M12.8,15.7c-2,0-3.5-1.6-3.5-3.5c0-2,1.6-3.5,3.5-3.5c2,0,3.5,1.6,3.5,3.5C16.3,14.1,14.7,15.7,12.8,15.7"/>
	<path class="st6" d="M18.4,5.2c-0.7,0-1.3,0.6-1.3,1.3c0,0.7,0.6,1.3,1.3,1.3c0.7,0,1.3-0.6,1.3-1.3C19.7,5.7,19.1,5.2,18.4,5.2"/>
</g>
</svg>
