<?xml version="1.0" encoding="utf-8"?>
<!-- Generator: Adobe Illustrator 26.0.2, SVG Export Plug-In . SVG Version: 6.00 Build 0)  -->
<svg version="1.1" id="레이어_1" xmlns="http://www.w3.org/2000/svg" xmlns:xlink="http://www.w3.org/1999/xlink" x="0px"
	 y="0px" viewBox="0 0 212 30" style="enable-background:new 0 0 212 30;" width="212px" height="30px" xml:space="preserve">
<style type="text/css">
	.st0{fill:none;}
</style>
<g>
	<g>
		<path d="M37.9,28.4c-1.4-0.7-2.5-1.8-3.3-3.2c-0.8-1.4-1.2-2.9-1.2-4.7V9.4c0-1.8,0.4-3.3,1.2-4.7c0.8-1.3,1.9-2.4,3.3-3.1
			c1.4-0.7,3.1-1.1,5-1.1c1.9,0,3.5,0.4,5,1.1c1.4,0.7,2.5,1.8,3.3,3.1c0.8,1.3,1.2,2.8,1.2,4.6c0,0.1,0,0.2-0.1,0.3
			c-0.1,0.1-0.2,0.1-0.3,0.1l-2.1,0.1c-0.3,0-0.4-0.1-0.4-0.4V9.3c0-1.9-0.6-3.4-1.8-4.6C46.4,3.6,44.8,3,42.8,3
			c-2,0-3.6,0.6-4.8,1.7c-1.2,1.2-1.8,2.7-1.8,4.6v11.3c0,1.9,0.6,3.4,1.8,4.6c1.2,1.2,2.8,1.7,4.8,1.7c2,0,3.6-0.6,4.8-1.7
			c1.2-1.1,1.8-2.7,1.8-4.6v-0.1c0-0.2,0.1-0.4,0.4-0.4l2.1,0.1c0.3,0,0.4,0.1,0.4,0.4c0,1.8-0.4,3.3-1.2,4.6
			c-0.8,1.3-1.9,2.4-3.3,3.1c-1.4,0.7-3.1,1.1-5,1.1C41,29.5,39.3,29.1,37.9,28.4z"/>
		<path d="M64.4,28.4c-1.4-0.7-2.5-1.8-3.3-3.2c-0.8-1.4-1.2-2.9-1.2-4.7V9.4c0-1.8,0.4-3.3,1.2-4.7c0.8-1.3,1.9-2.4,3.3-3.1
			c1.4-0.7,3.1-1.1,5-1.1c1.9,0,3.5,0.4,5,1.1c1.4,0.7,2.5,1.8,3.3,3.1c0.8,1.3,1.2,2.8,1.2,4.6c0,0.1,0,0.2-0.1,0.3
			c-0.1,0.1-0.2,0.1-0.3,0.1l-2.1,0.1c-0.3,0-0.4-0.1-0.4-0.4V9.3c0-1.9-0.6-3.4-1.8-4.6C73,3.6,71.4,3,69.4,3c-2,0-3.6,0.6-4.8,1.7
			c-1.2,1.2-1.8,2.7-1.8,4.6v11.3c0,1.9,0.6,3.4,1.8,4.6c1.2,1.2,2.8,1.7,4.8,1.7c2,0,3.6-0.6,4.8-1.7c1.2-1.1,1.8-2.7,1.8-4.6v-0.1
			c0-0.2,0.1-0.4,0.4-0.4l2.1,0.1c0.3,0,0.4,0.1,0.4,0.4c0,1.8-0.4,3.3-1.2,4.6c-0.8,1.3-1.9,2.4-3.3,3.1c-1.4,0.7-3.1,1.1-5,1.1
			C67.5,29.5,65.9,29.1,64.4,28.4z"/>
		<path d="M91.1,28.3c-1.5-0.8-2.6-1.9-3.4-3.3c-0.8-1.4-1.2-3.1-1.2-4.9V9.9c0-1.9,0.4-3.5,1.2-4.9c0.8-1.4,1.9-2.5,3.4-3.3
			c1.5-0.8,3.1-1.2,5.1-1.2c1.9,0,3.6,0.4,5.1,1.2c1.5,0.8,2.6,1.9,3.4,3.3c0.8,1.4,1.2,3.1,1.2,4.9v10.2c0,1.9-0.4,3.5-1.2,4.9
			c-0.8,1.4-1.9,2.5-3.4,3.3c-1.5,0.8-3.2,1.2-5.1,1.2C94.2,29.5,92.5,29.1,91.1,28.3z M101,25.1c1.2-1.2,1.9-2.9,1.9-4.9V9.8
			c0-2-0.6-3.7-1.9-5C99.8,3.6,98.2,3,96.1,3c-2,0-3.7,0.6-4.9,1.9c-1.2,1.3-1.9,2.9-1.9,5v10.4c0,2,0.6,3.7,1.9,4.9
			c1.2,1.2,2.9,1.9,4.9,1.9C98.2,27,99.8,26.4,101,25.1z"/>
		<path d="M114.6,28.7V1.2c0-0.3,0.1-0.4,0.4-0.4h2.1c0.3,0,0.4,0.1,0.4,0.4v25.2c0,0.1,0.1,0.2,0.2,0.2h14.3c0.3,0,0.4,0.1,0.4,0.4
			v1.7c0,0.3-0.1,0.4-0.4,0.4H115C114.7,29.1,114.6,29,114.6,28.7z"/>
		<path d="M143.1,28.3c-1.5-0.8-2.6-1.9-3.4-3.3c-0.8-1.4-1.2-3.1-1.2-4.9V9.9c0-1.9,0.4-3.5,1.2-4.9c0.8-1.4,1.9-2.5,3.4-3.3
			c1.5-0.8,3.1-1.2,5.1-1.2c1.9,0,3.6,0.4,5.1,1.2c1.5,0.8,2.6,1.9,3.4,3.3c0.8,1.4,1.2,3.1,1.2,4.9v10.2c0,1.9-0.4,3.5-1.2,4.9
			c-0.8,1.4-1.9,2.5-3.4,3.3c-1.5,0.8-3.2,1.2-5.1,1.2C146.2,29.5,144.6,29.1,143.1,28.3z M153.1,25.1c1.2-1.2,1.9-2.9,1.9-4.9V9.8
			c0-2-0.6-3.7-1.9-5c-1.2-1.3-2.9-1.9-4.9-1.9c-2,0-3.7,0.6-4.9,1.9c-1.2,1.3-1.9,2.9-1.9,5v10.4c0,2,0.6,3.7,1.9,4.9
			c1.2,1.2,2.9,1.9,4.9,1.9C150.2,27,151.9,26.4,153.1,25.1z"/>
		<path d="M182.6,28.9l-5.9-12.5c0-0.1-0.1-0.1-0.2-0.1h-6.9c-0.1,0-0.2,0.1-0.2,0.2v12.4c0,0.3-0.1,0.4-0.4,0.4H167
			c-0.3,0-0.4-0.1-0.4-0.4V1.2c0-0.3,0.1-0.4,0.4-0.4h10.5c2.3,0,4.2,0.7,5.6,2.2c1.4,1.4,2.1,3.3,2.1,5.6c0,1.9-0.5,3.5-1.5,4.8
			c-1,1.3-2.4,2.2-4.2,2.5c-0.1,0.1-0.1,0.1-0.1,0.2l6.1,12.5c0,0.1,0,0.1,0,0.2c0,0.2-0.1,0.3-0.3,0.3h-2.1
			C182.9,29.1,182.7,29,182.6,28.9z M169.5,3.5v10.2c0,0.1,0.1,0.2,0.2,0.2h7.5c1.6,0,2.8-0.5,3.8-1.5c1-1,1.5-2.2,1.5-3.8
			c0-1.6-0.5-2.8-1.5-3.8c-1-1-2.2-1.5-3.8-1.5h-7.5C169.5,3.3,169.5,3.4,169.5,3.5z"/>
		<path d="M211.3,3.3h-14.9c-0.1,0-0.2,0.1-0.2,0.2v10c0,0.1,0.1,0.2,0.2,0.2h10.4c0.3,0,0.4,0.1,0.4,0.4v1.7c0,0.3-0.1,0.4-0.4,0.4
			h-10.4c-0.1,0-0.2,0.1-0.2,0.2v10.2c0,0.1,0.1,0.2,0.2,0.2h14.9c0.3,0,0.4,0.1,0.4,0.4v1.7c0,0.3-0.1,0.4-0.4,0.4h-17.5
			c-0.3,0-0.4-0.1-0.4-0.4V1.2c0-0.3,0.1-0.4,0.4-0.4h17.5c0.3,0,0.4,0.1,0.4,0.4v1.7C211.7,3.2,211.6,3.3,211.3,3.3z"/>
	</g>
	<g>
		<polygon points="2.9,0.5 0.3,3.1 2.9,5.7 11.6,11.8 5.5,3.1 		"/>
		<polygon points="21.8,24.7 24.5,22 21.8,19.4 13.1,13.3 19.2,22 		"/>
		<polygon points="13.1,11.8 21.8,5.7 24.5,3.1 21.8,0.5 19.2,3.1 		"/>
		<polygon points="0.3,22 2.9,24.7 5.5,22 11.6,13.3 2.9,19.4 		"/>
	</g>
	<rect x="11.2" y="16.8" transform="matrix(6.123234e-17 -1 1 6.123234e-17 -15.9152 40.6656)" width="2.4" height="23.1"/>
</g>
<rect y="0" class="st0" width="212" height="30"/>
</svg>
