<?xml version="1.0" encoding="utf-8"?>
<!-- Generator: Adobe Illustrator 26.1.0, SVG Export Plug-In . SVG Version: 6.00 Build 0)  -->
<svg version="1.1" id="레이어_1" xmlns="http://www.w3.org/2000/svg" xmlns:xlink="http://www.w3.org/1999/xlink" x="0px"
	 y="0px" viewBox="0 0 144 21" style="enable-background:new 0 0 144 21;" width="144px" height="21px" xml:space="preserve">
<g>
	<g>
		<path d="M25.7,19.6c-1-0.5-1.7-1.2-2.2-2.2c-0.5-1-0.8-2-0.8-3.2V6.7c0-1.2,0.3-2.2,0.8-3.2c0.5-0.9,1.3-1.6,2.2-2.1
			c1-0.5,2.1-0.7,3.4-0.7c1.3,0,2.4,0.3,3.4,0.7c1,0.5,1.7,1.2,2.2,2.1c0.5,0.9,0.8,1.9,0.8,3.1c0,0.1,0,0.1-0.1,0.2
			c-0.1,0.1-0.1,0.1-0.2,0.1L33.9,7c-0.2,0-0.3-0.1-0.3-0.3V6.6c0-1.3-0.4-2.3-1.2-3.1c-0.9-0.7-2-1.2-3.3-1.2s-2.4,0.4-3.3,1.2
			c-0.8,0.8-1.2,1.8-1.2,3.1v7.7c0,1.3,0.4,2.3,1.2,3.1c0.8,0.8,1.9,1.2,3.3,1.2s2.4-0.4,3.3-1.2c0.8-0.7,1.2-1.8,1.2-3.1v-0.1
			c0-0.1,0.1-0.3,0.3-0.3l1.4,0.1c0.2,0,0.3,0.1,0.3,0.3c0,1.2-0.3,2.2-0.8,3.1c-0.5,0.9-1.3,1.6-2.2,2.1c-1,0.5-2.1,0.7-3.4,0.7
			C27.8,20.3,26.7,20.1,25.7,19.6z"/>
		<path d="M43.7,19.6c-1-0.5-1.7-1.2-2.2-2.2c-0.5-1-0.8-2-0.8-3.2V6.7c0-1.2,0.3-2.2,0.8-3.2c0.5-0.9,1.3-1.6,2.2-2.1
			s2.1-0.7,3.4-0.7s2.4,0.3,3.4,0.7c1,0.5,1.7,1.2,2.2,2.1c0.5,0.9,0.8,1.9,0.8,3.1c0,0.1,0,0.1-0.1,0.2c-0.1,0.1-0.1,0.1-0.2,0.1
			L51.9,7c-0.2,0-0.3-0.1-0.3-0.3V6.6c0-1.3-0.4-2.3-1.2-3.1c-0.8-0.7-1.9-1.2-3.3-1.2s-2.4,0.4-3.3,1.2c-0.8,0.8-1.2,1.8-1.2,3.1
			v7.7c0,1.3,0.4,2.3,1.2,3.1c0.8,0.8,1.9,1.2,3.3,1.2s2.4-0.4,3.3-1.2c0.8-0.7,1.2-1.8,1.2-3.1v-0.1c0-0.1,0.1-0.3,0.3-0.3l1.4,0.1
			c0.2,0,0.3,0.1,0.3,0.3c0,1.2-0.3,2.2-0.8,3.1c-0.5,0.9-1.3,1.6-2.2,2.1c-1,0.5-2.1,0.7-3.4,0.7C45.8,20.3,44.8,20.1,43.7,19.6z"
			/>
		<path d="M61.9,19.5c-1-0.5-1.8-1.3-2.3-2.2c-0.5-1-0.8-2.1-0.8-3.3V7c0-1.3,0.3-2.4,0.8-3.3c0.5-1,1.3-1.7,2.3-2.2
			s2.1-0.8,3.5-0.8c1.3,0,2.4,0.3,3.5,0.8s1.8,1.3,2.3,2.2c0.5,1,0.8,2.1,0.8,3.3V14c0,1.3-0.3,2.4-0.8,3.3c-0.5,1-1.3,1.7-2.3,2.2
			c-1,0.5-2.2,0.8-3.5,0.8C64,20.3,62.8,20.1,61.9,19.5z M68.6,17.4c0.8-0.8,1.3-2,1.3-3.3V7c0-1.4-0.4-2.5-1.3-3.4
			c-0.8-0.8-1.9-1.2-3.3-1.2c-1.4,0-2.5,0.4-3.3,1.3s-1.3,2-1.3,3.4v7.1c0,1.4,0.4,2.5,1.3,3.3c0.8,0.8,2,1.3,3.3,1.3
			C66.7,18.7,67.8,18.2,68.6,17.4z"/>
		<path d="M77.8,19.8V1.1c0-0.2,0.1-0.3,0.3-0.3h1.4c0.2,0,0.3,0.1,0.3,0.3v17.1c0,0.1,0.1,0.1,0.1,0.1h9.7c0.2,0,0.3,0.1,0.3,0.3
			v1.2c0,0.2-0.1,0.3-0.3,0.3H78.1C77.9,20.1,77.8,20,77.8,19.8z"/>
		<path d="M97.2,19.5c-1-0.5-1.8-1.3-2.3-2.2c-0.5-1-0.8-2.1-0.8-3.3V7c0-1.3,0.3-2.4,0.8-3.3c0.5-1,1.3-1.7,2.3-2.2
			c1-0.5,2.1-0.8,3.5-0.8c1.3,0,2.4,0.3,3.5,0.8c1,0.5,1.8,1.3,2.3,2.2s0.8,2.1,0.8,3.3V14c0,1.3-0.3,2.4-0.8,3.3
			c-0.5,1-1.3,1.7-2.3,2.2c-1,0.5-2.2,0.8-3.5,0.8C99.3,20.3,98.2,20.1,97.2,19.5z M104,17.4c0.8-0.8,1.3-2,1.3-3.3V7
			c0-1.4-0.4-2.5-1.3-3.4c-0.8-0.9-2-1.3-3.3-1.3c-1.4,0-2.5,0.4-3.3,1.3C96.5,4.5,96,5.5,96,7V14c0,1.4,0.4,2.5,1.3,3.3
			c0.8,0.8,2,1.3,3.3,1.3C102,18.7,103.2,18.2,104,17.4z"/>
		<path d="M124,19.9l-4-8.5c0-0.1-0.1-0.1-0.1-0.1h-4.7c-0.1,0-0.1,0.1-0.1,0.1v8.4c0,0.2-0.1,0.3-0.3,0.3h-1.4
			c-0.2,0-0.3-0.1-0.3-0.3V1.1c0-0.2,0.1-0.3,0.3-0.3h7.1c1.6,0,2.9,0.5,3.8,1.5c1,1,1.4,2.2,1.4,3.8c0,1.3-0.3,2.4-1,3.3
			s-1.6,1.5-2.9,1.7c-0.1,0.1-0.1,0.1-0.1,0.1l4.1,8.5c0,0.1,0,0.1,0,0.1c0,0.1-0.1,0.2-0.2,0.2h-1.4C124.2,20.1,124.1,20,124,19.9z
			 M115.1,2.7v6.9c0,0.1,0.1,0.1,0.1,0.1h5.1c1.1,0,1.9-0.3,2.6-1c0.7-0.7,1-1.5,1-2.6s-0.3-1.9-1-2.6c-0.7-0.7-1.5-1-2.6-1h-5.1
			C115.1,2.6,115.1,2.6,115.1,2.7z"/>
		<path d="M143.5,2.6h-10.1c-0.1,0-0.1,0.1-0.1,0.1v6.8c0,0.1,0.1,0.1,0.1,0.1h7.1c0.2,0,0.3,0.1,0.3,0.3V11c0,0.2-0.1,0.3-0.3,0.3
			h-7.1c-0.1,0-0.1,0.1-0.1,0.1v6.9c0,0.1,0.1,0.1,0.1,0.1h10.1c0.2,0,0.3,0.1,0.3,0.3v1.2c0,0.2-0.1,0.3-0.3,0.3h-11.9
			c-0.2,0-0.3-0.1-0.3-0.3V1.1c0-0.2,0.1-0.3,0.3-0.3h11.9c0.2,0,0.3,0.1,0.3,0.3v1.2C143.8,2.5,143.7,2.6,143.5,2.6z"/>
	</g>
	<g>
		<polygon points="2,0.7 0.2,2.4 2,4.2 7.9,8.3 3.7,2.4 		"/>
		<polygon points="14.8,17.1 16.6,15.3 14.8,13.5 8.9,9.3 13,15.3 		"/>
		<polygon points="8.9,8.3 14.8,4.2 16.6,2.4 14.8,0.7 13,2.4 		"/>
		<polygon points="0.2,15.3 2,17.1 3.7,15.3 7.9,9.3 2,13.5 		"/>
	</g>
	<rect x="0.6" y="18.7" width="15.7" height="1.6"/>
</g>
</svg>
