<svg version="1.1" xmlns="http://www.w3.org/2000/svg" xmlns:xlink="http://www.w3.org/1999/xlink" x="0px" y="0px"
	 viewBox="0 0 32 32" style="enable-background:new 0 0 32 32;" width="32px" height="32px" xml:space="preserve">
<style type="text/css">
	.st0{display:none;}
	.st1{display:inline;fill:none;}
	.st2{display:inline;fill:#333333;}
	.st3{fill:none;}
	.st4{fill:#333333;}
	.st5{display:inline;}
	.st6{display:inline;fill:none;stroke:#333333;stroke-width:2;stroke-miterlimit:10;}
	.st7{fill:none;stroke:#333333;stroke-width:2;stroke-miterlimit:10;}
</style>
<g id="레이어_1" class="st0">
	<rect y="0" class="st1" width="32" height="32"/>
	<polygon class="st2" points="22.1,13.5 21,12.5 16,17.5 11,12.5 9.9,13.5 16,19.5 16,19.5 16,19.5 	"/>
</g>
<g id="search_x5F_close">
	<rect y="0" class="st3" width="32" height="32"/>
	<polygon class="st4" points="7.1,19.7 8.5,21.2 16,13.8 23.5,21.2 24.9,19.7 16,10.8 16,10.8 16,10.8 	"/>
</g>
<g id="레이어_4" class="st0">
	<rect class="st1" width="32" height="32"/>
	<g class="st5">
		<rect x="6" y="8.8" class="st4" width="20" height="2.5"/>
		<rect x="6" y="14.8" class="st4" width="20" height="2.5"/>
		<rect x="6" y="20.8" class="st4" width="20" height="2.5"/>
	</g>
</g>
<g id="레이어_2" class="st0">
	<polygon class="st2" points="23.8,9.2 22.4,7.8 16,14.1 9.6,7.8 8.2,9.2 14.6,15.5 8.2,21.9 9.6,23.3 16,16.9 22.4,23.3 23.8,21.9 
		17.4,15.5 	"/>
	<rect x="0" class="st1" width="32" height="32"/>
</g>
<g id="레이어" class="st0">
	<g>
		<circle class="st6" cx="14.8" cy="14.6" r="7.5"/>
		<rect x="20.9" y="19" transform="matrix(0.7071 -0.7071 0.7071 0.7071 -9.1751 21.9098)" class="st2" width="2" height="6"/>
	</g>
	<g class="st5">
		<circle class="st7" cx="16" cy="11.2" r="3.8"/>
		<path class="st7" d="M8.6,24.6c0-4.1,3.3-7.4,7.4-7.4s7.4,3.3,7.4,7.4"/>
		<rect x="0" class="st3" width="32" height="32"/>
	</g>
	<rect x="0" class="st1" width="32" height="32"/>
</g>
<g id="레이어_3" class="st0">
	<rect class="st1" width="32" height="32"/>
	<g class="st5">
		<path class="st4" d="M21.8,9H10.2c-0.9,0-1.7,0.7-1.7,1.6v11.9c0,0.9,0.8,1.6,1.7,1.6h11.7c0.9,0,1.7-0.7,1.7-1.6V10.6
			C23.5,9.7,22.7,9,21.8,9z M21.8,22.2H10.2V10.9h11.6V22.2z"/>
		<path class="st4" d="M19.9,10.3V5.9c0-0.3-0.3-0.6-0.7-0.6l0,0l0,0h-6.5l0,0l0,0c-0.4,0.1-0.7,0.3-0.7,0.6v4.3h1.6V6.8h4.7v3.5
			H19.9z"/>
	</g>
</g>
<g id="레이어_사본" class="st0">
	<g class="st5">
		<circle class="st7" cx="14.8" cy="14.6" r="7.5"/>
		<rect x="20.9" y="19" transform="matrix(0.7071 -0.7071 0.7071 0.7071 -9.1751 21.9098)" class="st4" width="2" height="6"/>
	</g>
	<rect x="0" class="st1" width="32" height="32"/>
</g>
<g id="레이어_사본_2" class="st0">
	<rect x="0" class="st1" width="32" height="32"/>
</g>
</svg>
