<svg version="1.1" xmlns="http://www.w3.org/2000/svg" xmlns:xlink="http://www.w3.org/1999/xlink" x="0px" y="0px"
	 viewBox="0 0 32 32" style="enable-background:new 0 0 32 32;" width="32px" height="32px" xml:space="preserve">
<style type="text/css">
	.st0{display:none;}
	.st1{display:inline;fill:none;}
	.st2{display:inline;fill:#333333;}
	.st3{display:inline;}
	.st4{fill:#333333;}
	.st5{fill:none;stroke:#333333;stroke-width:2;stroke-miterlimit:10;}
	.st6{fill:none;}
</style>
<g id="레이어_1" class="st0">
	<rect x="-4" y="-4" class="st1" width="40" height="40"/>
	<polygon class="st2" points="24.5,12.5 23.1,11.1 16,18.1 8.9,11 7.5,12.5 16,20.9 16,20.9 16,21 	"/>
</g>
<g id="레이어_4" class="st0">
	<rect class="st1" width="32" height="32"/>
	<g class="st3">
		<rect x="6" y="8.8" class="st4" width="20" height="2.5"/>
		<rect x="6" y="14.8" class="st4" width="20" height="2.5"/>
		<rect x="6" y="20.8" class="st4" width="20" height="2.5"/>
	</g>
</g>
<g id="레이어_2" class="st0">
	<polygon class="st2" points="23.8,9.2 22.4,7.8 16,14.1 9.6,7.8 8.2,9.2 14.6,15.5 8.2,21.9 9.6,23.3 16,16.9 22.4,23.3 23.8,21.9 
		17.4,15.5 	"/>
	<rect x="0" class="st1" width="32" height="32"/>
</g>
<g id="레이어">
	<g>
		<circle class="st5" cx="14.8" cy="14.6" r="7.5"/>
		<rect x="20.9" y="19" transform="matrix(0.7071 -0.7071 0.7071 0.7071 -9.1751 21.9098)" class="st4" width="2" height="6"/>
	</g>
	<rect x="0" class="st6" width="32" height="32"/>
</g>
<g id="레이어_3" class="st0">
	<rect class="st1" width="32" height="32"/>
	<g class="st3">
		<path class="st4" d="M21.8,9H10.2c-0.9,0-1.7,0.7-1.7,1.6v11.9c0,0.9,0.8,1.6,1.7,1.6h11.7c0.9,0,1.7-0.7,1.7-1.6V10.6
			C23.5,9.7,22.7,9,21.8,9z M21.8,22.2H10.2V10.9h11.6V22.2z"/>
		<path class="st4" d="M19.9,10.3V5.9c0-0.3-0.3-0.6-0.7-0.6l0,0l0,0h-6.5l0,0l0,0c-0.4,0.1-0.7,0.3-0.7,0.6v4.3h1.6V6.8h4.7v3.5
			H19.9z"/>
	</g>
</g>
</svg>
